<?xml version="1.0" ?><svg viewBox="0 0 46.07 56.53" xmlns="http://www.w3.org/2000/svg"><g data-name="レイヤー 2" id="レイヤー_2"><g id="tree"><path d="M46,51.78l-7.2-12.6a16.45,16.45,0,0,0,1.7.35h.07a.49.49,0,0,0,.41-.22.49.49,0,0,0,0-.53l-4.81-8.42a1.5,1.5,0,0,0-.69-2.83,1.52,1.52,0,0,0-.79.23l-.83-1.44a15.45,15.45,0,0,0,1.58.21.5.5,0,0,0,.47-.75l-.16-.28a2.49,2.49,0,0,0-.27-5,2.47,2.47,0,0,0-2,1L26.43,9.15l-.07-2.57,1.79-2.33a.51.51,0,0,0,.08-.46.52.52,0,0,0-.33-.33l-2.82-.83L23.41.2a.52.52,0,0,0-.82,0L20.92,2.63l-2.82.83a.52.52,0,0,0-.33.33.51.51,0,0,0,.08.46l1.79,2.33-.07,2.57-9.5,16.63a.49.49,0,0,0,0,.53.49.49,0,0,0,.41.22h.07a16.45,16.45,0,0,0,1.7-.35l-7.2,12.6a.49.49,0,0,0,0,.53.49.49,0,0,0,.41.22h.07a16.45,16.45,0,0,0,1.7-.35L.07,51.78a.49.49,0,0,0,0,.53.49.49,0,0,0,.41.22H.57c3.5-.5,6-1.92,7.27-4A5.56,5.56,0,0,0,9.06,51a4.88,4.88,0,0,0,3.82,1.52,5.47,5.47,0,0,0,5.4-3.4,5.06,5.06,0,0,0,.94,1.81,4.42,4.42,0,0,0,.9.77A.53.53,0,0,0,20,52v4a.5.5,0,0,0,.5.5h5A.5.5,0,0,0,26,56V52a.47.47,0,0,0,0-.17A5.07,5.07,0,0,0,27.14,51a5.81,5.81,0,0,0,1.15-1.73,4.65,4.65,0,0,0,4.9,3.25A4.89,4.89,0,0,0,37,51a5.56,5.56,0,0,0,1.22-2.5c1.25,2.1,3.77,3.52,7.27,4h.07a.49.49,0,0,0,.41-.22A.49.49,0,0,0,46,51.78ZM35.5,28.53a.5.5,0,0,1,.5.5.5.5,0,0,1-1,0A.5.5,0,0,1,35.5,28.53Zm0-7A1.5,1.5,0,1,1,34,23,1.5,1.5,0,0,1,35.5,21.53ZM33,22.62A2.71,2.71,0,0,0,33,23a2.5,2.5,0,0,0,1.53,2.3l0,.1C32.31,25.1,28.68,23.94,28,20a.5.5,0,0,0-.57-.41.49.49,0,0,0-.41.57s.41,2.61-.93,4.18a4,4,0,0,1-3.2,1.24,3.91,3.91,0,0,1-3.07-1.19,5.73,5.73,0,0,1-1.17-3.82,2.5,2.5,0,0,0-.14-5,2.48,2.48,0,0,0-2,1L20.24,10,23,9l2.76,1,7.12,12.45A.65.65,0,0,0,33,22.62ZM18.5,19.53A1.5,1.5,0,1,1,20,18,1.5,1.5,0,0,1,18.5,19.53Zm.59-15.32,2.29-.67a.48.48,0,0,0,.27-.2l1.35-2,1.35,2a.48.48,0,0,0,.27.2l2.29.67-1.45,1.9a.52.52,0,0,0-.11.32l.07,2.39L23.17,8a.5.5,0,0,0-.34,0l-2.25.8.07-2.39a.52.52,0,0,0-.11-.32Zm-2.9,12.87A2.56,2.56,0,0,0,16,18a2.49,2.49,0,0,0,1.59,2.32c-.65,3.27-3.95,4.53-6.13,5ZM13.58,25.9a.39.39,0,0,0,.05-.14,8.06,8.06,0,0,0,4.21-3.25A5.56,5.56,0,0,0,19.06,25a4.88,4.88,0,0,0,3.82,1.52,5,5,0,0,0,4-1.59,5.17,5.17,0,0,0,1.07-2.34A8,8,0,0,0,32.56,26s0,.05,0,.07l1.27,2.22a.47.47,0,0,0,.26.2A1.46,1.46,0,0,0,34,29a1.5,1.5,0,0,0,1.1,1.44l4.51,7.88a8.29,8.29,0,0,1-5.44-3.23A.55.55,0,0,0,34,35a2.5,2.5,0,1,0-2.88,2.53,4,4,0,0,1-2.92,1c-4,0-4.92-3.33-5.13-4.81A4.69,4.69,0,0,0,23,33a.14.14,0,0,0,0-.06l0-.09-.06-.08-.06-.07-.08,0-.09,0-.09,0h-.14l-.06,0-.09,0-.08,0-.07.06-.05.08a.36.36,0,0,0,0,.09s0,.06,0,.1,0,0,0,.06,0,.26.06.65a5.35,5.35,0,0,1-1,3.6,4,4,0,0,1-3.2,1.24,3.91,3.91,0,0,1-3.07-1.19,6.18,6.18,0,0,1-1.15-4.25.5.5,0,0,0-1-.12c-.45,3.56-3.94,4.89-6.2,5.38ZM31.5,36.53A1.5,1.5,0,1,1,33,35,1.5,1.5,0,0,1,31.5,36.53Zm-6.5,19H21V52.16a6.2,6.2,0,0,0,2.19.37A6.13,6.13,0,0,0,25,52.26ZM38.4,46a.49.49,0,0,0-.55-.43.5.5,0,0,0-.44.55s.27,2.67-1.15,4.25a3.93,3.93,0,0,1-3.07,1.19A4,4,0,0,1,30,50.29a5.2,5.2,0,0,1-1-3.42c.05-.48.05-.81.05-.84s0,0,0-.06,0-.07,0-.1a.41.41,0,0,0,0-.09.25.25,0,0,0,0-.07l-.09-.08-.05,0-.12-.05h-.18l-.1,0-.09,0-.07,0-.07.07-.05.07,0,.1s0,0,0,.05a5.5,5.5,0,0,0-.07.84,6.1,6.1,0,0,1-1.52,3.52,4.36,4.36,0,0,1-3.23,1.22A4,4,0,0,1,20,50.29c-1.34-1.57-.93-4.15-.93-4.18a.49.49,0,0,0-.41-.57H18.5a.5.5,0,0,0-.5.5c0,.22-.08,5.5-5.12,5.5a3.91,3.91,0,0,1-3.07-1.19,6.18,6.18,0,0,1-1.15-4.25.5.5,0,0,0-1-.12c-.45,3.56-3.94,4.89-6.2,5.38l7-12.3a.53.53,0,0,0,.06-.27,8,8,0,0,0,4.29-3.27A5.56,5.56,0,0,0,14.06,38a4.88,4.88,0,0,0,3.82,1.52,5,5,0,0,0,4-1.59,4.89,4.89,0,0,0,.92-1.76,5.55,5.55,0,0,0,5.42,3.35,4.77,4.77,0,0,0,4.34-2.23,2.49,2.49,0,0,0,1.18-1.13,8.48,8.48,0,0,0,3.8,2.6.58.58,0,0,0,.05.26l7,12.32C42.35,50.86,38.86,49.53,38.4,46Z"/><path d="M10.5,39.53A2.5,2.5,0,1,0,13,42,2.5,2.5,0,0,0,10.5,39.53Zm0,4A1.5,1.5,0,1,1,12,42,1.5,1.5,0,0,1,10.5,43.53Z"/><path d="M34.5,45.53A2.5,2.5,0,1,0,37,48,2.5,2.5,0,0,0,34.5,45.53Zm0,4A1.5,1.5,0,1,1,36,48,1.5,1.5,0,0,1,34.5,49.53Z"/><path d="M25.5,13.53A1.5,1.5,0,1,0,27,15,1.5,1.5,0,0,0,25.5,13.53Zm0,2A.5.5,0,0,1,25,15a.5.5,0,0,1,1,0A.5.5,0,0,1,25.5,15.53Z"/><path d="M17.5,30.53A1.5,1.5,0,1,0,16,29,1.5,1.5,0,0,0,17.5,30.53Zm0-2a.5.5,0,0,1,.5.5.5.5,0,0,1-1,0A.5.5,0,0,1,17.5,28.53Z"/><path d="M23.5,43.53A1.5,1.5,0,1,0,25,45,1.5,1.5,0,0,0,23.5,43.53Zm0,2A.5.5,0,0,1,23,45a.5.5,0,0,1,1,0A.5.5,0,0,1,23.5,45.53Z"/><path d="M16.58,5.61a.51.51,0,0,0,.42.23.45.45,0,0,0,.27-.08.5.5,0,0,0,.15-.69l-1.17-1.8,2.44-1A.5.5,0,0,0,19,1.65a.49.49,0,0,0-.65-.28l-3,1.2a.52.52,0,0,0-.29.31.52.52,0,0,0,.06.42Z"/><path d="M28.19,2.26l1.65,1L29,4.78a.5.5,0,0,0,.21.67.46.46,0,0,0,.23.06.49.49,0,0,0,.44-.27l1-2a.49.49,0,0,0-.19-.66L28.69,1.4a.5.5,0,0,0-.5.86Z"/></g></g></svg>